<svg xmlns="http://www.w3.org/2000/svg" version="1.1" xmlns:xlink="http://www.w3.org/1999/xlink" xmlns:svgjs="http://svgjs.com/svgjs" width="1440" height="560" preserveAspectRatio="none" viewBox="0 0 1440 560"><g mask="url(&quot;#SvgjsMask1010&quot;)" fill="none"><rect width="1440" height="560" x="0" y="0" fill="rgba(41, 50, 65, 1)"></rect><path d="M0,522.706C96.771,533.857,181.711,462.89,262.6,408.614C342.084,355.281,427.708,300.451,463.527,211.686C498.806,124.258,465.654,28.283,453.815,-65.249C441.755,-160.529,458.471,-270.237,393.569,-341.029C328.829,-411.644,219.61,-412.08,124.598,-424.342C42.004,-435.002,-37.932,-423.65,-119.581,-407.256C-208.901,-389.322,-314.724,-393.256,-374.149,-324.202C-433.564,-255.16,-394.744,-148.132,-418.295,-60.142C-446.304,44.503,-570.813,141.594,-525.111,239.81C-479.296,338.268,-321.995,300.764,-226.39,352.27C-141.513,397.996,-95.777,511.67,0,522.706" fill="#212834"></path><path d="M1440 1271.8899999999999C1571.145 1267.426 1640.445 1114.604 1750.238 1042.74 1858.759 971.7090000000001 2033.798 973.517 2080.636 852.569 2128.006 730.248 2018.077 604.908 1966.498 484.301 1927.444 392.98199999999997 1882.308 308.142 1816.1309999999999 234.08100000000002 1750.825 160.995 1677.721 96.507 1586.949 59.53699999999998 1489.3220000000001 19.774999999999977 1383.61-4.705000000000041 1280.212 15.812000000000012 1171.6689999999999 37.35000000000002 1072.362 95.082 997.432 176.51299999999998 921.169 259.393 887.779 367.887 856.648 476.127 821.074 599.814 751.633 732.892 803.537 850.663 855.462 968.482 1008.515 993.274 1115.884 1064.334 1225.08 1136.603 1309.131 1276.345 1440 1271.8899999999999" fill="#313c4e"></path></g><defs><mask id="SvgjsMask1010"><rect width="1440" height="560" fill="#ffffff"></rect></mask></defs></svg>