<svg xmlns="http://www.w3.org/2000/svg" version="1.1" xmlns:xlink="http://www.w3.org/1999/xlink" xmlns:svgjs="http://svgjs.com/svgjs" width="1440" height="560" preserveAspectRatio="none" viewBox="0 0 1440 560"><g mask="url(&quot;#SvgjsMask1009&quot;)" fill="none"><path d="M609.85 609.24C747.56 541.11 675.23 98.67 942.01 92.17 1208.78 85.67 1436.88 225.9 1606.32 226.57" stroke="rgba(61, 90, 128, 1)" stroke-width="2"></path><path d="M290.52 613.02C443.31 588.75 515.93 223.7 767.95 219.34 1019.97 214.98 1006.67 289.34 1245.38 289.34 1484.1 289.34 1602.18 219.53 1722.81 219.34" stroke="rgba(61, 90, 128, 1)" stroke-width="2"></path><path d="M399.33 589.98C558.78 589.02 696.49 448.81 1020.44 444.94 1344.39 441.07 1476.52 224.33 1641.55 220.94" stroke="rgba(61, 90, 128, 1)" stroke-width="2"></path><path d="M248.71 665.19C419.82 653.75 526.32 334.99 845.71 327.35 1165.09 319.71 1290.58 210.31 1442.7 209.75" stroke="rgba(61, 90, 128, 1)" stroke-width="2"></path><path d="M168.17 579.6C294.97 576.52 403.38 398.06 641.87 397.87 880.36 397.68 878.71 467.87 1115.56 467.87 1352.41 467.87 1469.55 398.06 1589.26 397.87" stroke="rgba(61, 90, 128, 1)" stroke-width="2"></path></g><defs><mask id="SvgjsMask1009"><rect width="1440" height="560" fill="#ffffff"></rect></mask></defs></svg>